<svg width="114" height="154" viewBox="0 0 114 154" fill="none" xmlns="http://www.w3.org/2000/svg">
<path d="M60 153.6C89.4 153.6 114 137.6 114 111.8C114 91.6 101.6 78.4 84.6 74.4V73.6C101.2 68.2 110.2 56 110.2 39C110.2 15.8 90.4 -1.09673e-05 58.6 -1.09673e-05C38 -1.09673e-05 19.2 8.99999 3.6 23.6L19 41.4C31.4 28.8 44.4 23.4 57.4 23.4C74.2 23.4 82.6 31.4 82.6 42C82.6 54.4 70.4 64.6 39 64.6V85.8C74.8 85.8 86.2 95 86.2 109.4C86.2 121.8 74.6 129.8 58 129.8C42.2 129.8 26.2 121.6 15.2 109.4L0.600003 128C12.6 141.6 31.8 153.6 60 153.6Z" fill="#2E78BA" fill-opacity="0.4"/>
</svg>
